<svg version="1.1" xmlns="http://www.w3.org/2000/svg" xmlns:xlink="http://www.w3.org/1999/xlink">
  <symbol id="close" viewBox="0 0 22 22" fill="none">
    <path d="M1 1L21 21" stroke="currentColor"/>
    <path d="M21 1L0.999999 21" stroke="currentColor"/>
  </symbol>
  <symbol id="eye" viewBox="0 0 14 14" fill="none">
    <g clip-path="url(#clip0)">
      <path d="M7 1.75C10.2345 1.75 12.9787 3.94343 14 7.00001C12.9787 10.0566 10.2345 12.25 7 12.25C3.76549 12.25 1.02128 10.0566 -1.90735e-06 7.00001C1.02128 3.94343 3.76549 1.75 7 1.75ZM7 10.5C8.93301 10.5 10.5 8.933 10.5 7.00001C10.5 5.067 8.93301 3.50001 7 3.50001C5.06699 3.50001 3.5 5.067 3.5 7.00001C3.5 8.93297 5.06699 10.5 7 10.5Z" fill="currentColor"/>
      <path d="M5.76257 5.76256C5.07916 6.44597 5.07916 7.55401 5.76257 8.23743C6.44599 8.92084 7.55403 8.92084 8.23744 8.23743C8.92085 7.55401 8.92085 6.44597 8.23744 5.76256C7.55403 5.07915 6.44599 5.07915 5.76257 5.76256Z" fill="currentColor"/>
    </g>
    <defs>
    <clipPath id="clip0">
      <rect width="14" height="14" fill="white" transform="matrix(-1 0 0 1 14 0)"/>
    </clipPath>
    </defs>
  </symbol>
  <symbol id="logout" viewBox="0 0 16 17" fill="none">
    <path d="M10 1H15V16H10" stroke="currentColor"/>
    <path d="M11.5 8.54478H1M1 8.54478L4.33333 5M1 8.54478L4.33333 12" stroke="currentColor"/>
  </symbol>
  <symbol id="forgotten" viewBox="0 0 16 20" fill="none">
    <rect x="0.5" y="4.92969" width="15" height="13.8571" stroke="currentColor"/>
    <path d="M11.4284 4.42857C11.4284 3.51926 11.0672 2.64719 10.4242 2.00421C9.78124 1.36122 8.90917 1 7.99986 1C7.09055 1 6.21848 1.36122 5.57549 2.0042C4.93251 2.64719 4.57129 3.51926 4.57129 4.42857" stroke="currentColor"/>
  </symbol>

  <symbol id="orders" viewBox="0 0 18 14" fill="none">
    <rect x="0.5" y="0.5" width="17" height="12.8125" stroke="currentColor"/>
    <path d="M14.625 1.78814e-07C14.625 1.69076 14.0324 3.31226 12.9775 4.50781C11.9226 5.70335 10.4918 6.375 9 6.375C7.50816 6.375 6.07742 5.70335 5.02252 4.50781C3.96763 3.31226 3.375 1.69076 3.375 1.28421e-06" stroke="currentColor"/>
  </symbol>

  <symbol id="wishlist" viewBox="0 0 21 18" fill="none" xmlns="http://www.w3.org/2000/svg">
    <path fill-rule="evenodd" clip-rule="evenodd" d="M2.31802 2.31802C4.07538 0.56066 6.92462 0.56066 8.68198 2.31802L10.5 4.13604L12.318 2.31802C14.0754 0.56066 16.9246 0.56066 18.682 2.31802C20.4393 4.07538 20.4393 6.92462 18.682 8.68198L10.5 16.864L2.31802 8.68198C0.56066 6.92462 0.56066 4.07538 2.31802 2.31802Z" stroke="currentColor" stroke-linecap="round"/>
  </symbol>

  <symbol id="address" viewBox="-68 0 512 512">
    <path d="m187.644531 0c-103.46875 0-187.644531 84.175781-187.644531 187.644531 0 47.53125 29.949219 114.6875 89.019531 199.605469 43.175781 62.074219 85.640625 110.109375 87.429688 112.125l11.195312 12.625 11.199219-12.625c1.785156-2.015625 44.25-50.050781 87.429688-112.125 59.066406-84.917969 89.019531-152.074219 89.019531-199.605469 0-103.46875-84.179688-187.644531-187.648438-187.644531zm74.21875 369.914062c-29.183593 41.984376-58.679687 78.117188-74.21875 96.550782-15.5-18.382813-44.886719-54.378906-74.050781-96.308594-54.730469-78.679688-83.660156-141.792969-83.660156-182.511719 0-86.960937 70.75-157.710937 157.710937-157.710937 86.964844 0 157.710938 70.75 157.710938 157.710937 0 40.675781-28.871094 103.703125-83.492188 182.269531zm0 0" fill="currentColor"/>
    <path d="m187.644531 69.351562c-61.066406 0-110.746093 49.679688-110.746093 110.746094s49.679687 110.75 110.746093 110.75c61.070313 0 110.75-49.683594 110.75-110.75s-49.679687-110.746094-110.75-110.746094zm0 191.5625c-44.558593 0-80.8125-36.253906-80.8125-80.816406 0-44.558594 36.253907-80.8125 80.8125-80.8125 44.5625 0 80.816407 36.253906 80.816407 80.8125 0 44.5625-36.253907 80.816406-80.816407 80.816406zm0 0" fill="currentColor"/>
  </symbol>

  <symbol id="profile" viewBox="0 0 16 18" fill="none" xmlns="http://www.w3.org/2000/svg">
    <path fill-rule="evenodd" clip-rule="evenodd" d="M14.9282 17C14.8452 16.4247 14.6906 15.8607 14.4672 15.3212C14.1154 14.4719 13.5998 13.7003 12.9497 13.0503C12.2997 12.4002 11.5281 11.8846 10.6788 11.5328C9.8295 11.1811 8.91925 11 8 11C7.08075 11 6.17049 11.1811 5.32122 11.5328C4.47194 11.8846 3.70026 12.4002 3.05025 13.0503C2.40024 13.7003 1.88463 14.4719 1.53284 15.3212C1.3094 15.8607 1.15484 16.4247 1.0718 17L14.9282 17ZM15.9373 17C15.8482 16.293 15.6649 15.5996 15.391 14.9385C14.989 13.9679 14.3997 13.086 13.6569 12.3431C12.914 11.6003 12.0321 11.011 11.0615 10.609C10.0909 10.2069 9.05057 10 8 10C6.94942 10 5.90914 10.2069 4.93853 10.609C3.96793 11.011 3.08601 11.6003 2.34315 12.3431C1.60028 13.086 1.011 13.9679 0.608963 14.9385C0.335133 15.5996 0.151816 16.293 0.0627457 17C0.0210429 17.331 0 17.665 0 18L16 18C16 17.665 15.979 17.331 15.9373 17Z" fill="currentColor"/>
    <path fill-rule="evenodd" clip-rule="evenodd" d="M8 7C9.65685 7 11 5.65685 11 4C11 2.34315 9.65685 1 8 1C6.34315 1 5 2.34315 5 4C5 5.65685 6.34315 7 8 7ZM8 8C10.2091 8 12 6.20914 12 4C12 1.79086 10.2091 0 8 0C5.79086 0 4 1.79086 4 4C4 6.20914 5.79086 8 8 8Z" fill="currentColor"/>
  </symbol>


</svg>
